<svg xmlns="http://www.w3.org/2000/svg" xmlns:xlink="http://www.w3.org/1999/xlink" width="600" zoomAndPan="magnify" viewBox="0 0 450 149.999998" height="200" preserveAspectRatio="xMidYMid meet" version="1.0"><rect x="-45" width="540" fill="#ffffff" y="-15" height="179.999997" fill-opacity="1"/><rect x="-45" width="540" fill="#1e2e30" y="-15" height="179.999997" fill-opacity="1"/><path fill="#19c8fa" d="M 409.449219 134.644531 C 409.449219 134.644531 415.824219 129.394531 413.164062 122.785156 C 410.503906 116.175781 404.917969 118.730469 404.917969 118.730469 C 404.917969 118.730469 407.726562 109.441406 399.972656 107.917969 C 395.226562 106.980469 391.453125 112.863281 391.453125 112.863281 C 391.453125 112.863281 390.386719 106.113281 383.898438 105.785156 C 377.40625 105.457031 375.378906 112.277344 375.378906 112.277344 C 375.378906 112.277344 372.894531 105.035156 366.191406 105.820312 C 361.203125 106.40625 358.90625 112.394531 358.90625 112.394531 C 358.90625 112.394531 356.667969 105 349.824219 105.832031 C 342.984375 106.664062 342.714844 113.144531 342.714844 113.144531 C 342.714844 113.144531 339.738281 105.796875 333.515625 108.585938 C 327.925781 111.082031 329.460938 118.941406 329.460938 118.941406 C 329.460938 118.941406 322.972656 117.417969 321.179688 123.957031 C 319.386719 130.496094 325.480469 134.878906 325.480469 134.878906 C 325.480469 134.878906 318.390625 139.714844 321.542969 147.296875 C 323.382812 151.714844 329.789062 151 329.789062 151 C 329.789062 151 328.722656 157.886719 333.328125 161.039062 C 339.105469 165 343.078125 157.007812 343.078125 157.007812 C 343.078125 157.007812 345.117188 163.886719 351.019531 164.320312 C 357.160156 164.765625 359.5625 157.59375 359.5625 157.59375 C 359.5625 157.59375 360.921875 163.910156 368.289062 163.910156 C 374.335938 163.898438 375.636719 157.265625 375.636719 157.265625 C 375.636719 157.265625 377.382812 164.25 384.660156 164.226562 C 390 164.214844 391.828125 156.726562 391.828125 156.726562 C 391.828125 156.726562 395.296875 163.933594 402.246094 160.699219 C 407.410156 158.296875 405.164062 150.636719 405.164062 150.636719 C 405.164062 150.636719 410.726562 153.648438 413.328125 146.957031 C 415.929688 140.265625 409.449219 134.644531 409.449219 134.644531 Z M 409.449219 134.644531 " fill-opacity="1" fill-rule="nonzero"/><path fill="#19c8fa" d="M 109.058594 -0.355469 C 109.058594 -0.355469 115.433594 -5.605469 112.773438 -12.214844 C 110.113281 -18.824219 104.527344 -16.269531 104.527344 -16.269531 C 104.527344 -16.269531 107.339844 -25.558594 99.582031 -27.082031 C 94.835938 -28.019531 91.0625 -22.136719 91.0625 -22.136719 C 91.0625 -22.136719 89.996094 -28.886719 83.507812 -29.214844 C 77.015625 -29.542969 74.988281 -22.722656 74.988281 -22.722656 C 74.988281 -22.722656 72.503906 -29.964844 65.804688 -29.179688 C 60.8125 -28.59375 58.515625 -22.605469 58.515625 -22.605469 C 58.515625 -22.605469 56.277344 -30 49.433594 -29.167969 C 42.59375 -28.335938 42.324219 -21.855469 42.324219 -21.855469 C 42.324219 -21.855469 39.347656 -29.203125 33.125 -26.414062 C 27.539062 -23.917969 29.070312 -16.058594 29.070312 -16.058594 C 29.070312 -16.058594 22.582031 -17.582031 20.789062 -11.042969 C 18.996094 -4.503906 25.089844 -0.121094 25.089844 -0.121094 C 25.089844 -0.121094 18 4.714844 21.152344 12.296875 C 22.992188 16.714844 29.398438 16 29.398438 16 C 29.398438 16 28.332031 22.886719 32.9375 26.039062 C 38.714844 30 42.6875 22.007812 42.6875 22.007812 C 42.6875 22.007812 44.726562 28.886719 50.628906 29.320312 C 56.769531 29.765625 59.171875 22.59375 59.171875 22.59375 C 59.171875 22.59375 60.53125 28.910156 67.902344 28.910156 C 73.945312 28.898438 75.246094 22.265625 75.246094 22.265625 C 75.246094 22.265625 76.992188 29.25 84.269531 29.226562 C 89.609375 29.214844 91.4375 21.726562 91.4375 21.726562 C 91.4375 21.726562 94.90625 28.933594 101.855469 25.699219 C 107.023438 23.296875 104.773438 15.636719 104.773438 15.636719 C 104.773438 15.636719 110.335938 18.648438 112.9375 11.957031 C 115.539062 5.265625 109.058594 -0.355469 109.058594 -0.355469 Z M 109.058594 -0.355469 " fill-opacity="1" fill-rule="nonzero"/></svg>